%TF.GenerationSoftware,KiCad,Pcbnew,9.0.5*%
%TF.CreationDate,2025-11-12T12:55:28-08:00*%
%TF.ProjectId,memory_block_v1,6d656d6f-7279-45f6-926c-6f636b5f7631,rev?*%
%TF.SameCoordinates,Original*%
%TF.FileFunction,Drillmap*%
%TF.FilePolarity,Positive*%
%FSLAX45Y45*%
G04 Gerber Fmt 4.5, Leading zero omitted, Abs format (unit mm)*
G04 Created by KiCad (PCBNEW 9.0.5) date 2025-11-12 12:55:28*
%MOMM*%
%LPD*%
G01*
G04 APERTURE LIST*
%ADD10C,0.050000*%
%ADD11C,0.200000*%
G04 APERTURE END LIST*
D10*
X8712200Y-3530600D02*
X12512200Y-3530600D01*
X12512200Y-8330600D01*
X8712200Y-8330600D01*
X8712200Y-3530600D01*
D11*
X8970477Y-8644584D02*
X8970477Y-8444584D01*
X8970477Y-8444584D02*
X9018096Y-8444584D01*
X9018096Y-8444584D02*
X9046667Y-8454108D01*
X9046667Y-8454108D02*
X9065715Y-8473155D01*
X9065715Y-8473155D02*
X9075239Y-8492203D01*
X9075239Y-8492203D02*
X9084763Y-8530298D01*
X9084763Y-8530298D02*
X9084763Y-8558870D01*
X9084763Y-8558870D02*
X9075239Y-8596965D01*
X9075239Y-8596965D02*
X9065715Y-8616012D01*
X9065715Y-8616012D02*
X9046667Y-8635060D01*
X9046667Y-8635060D02*
X9018096Y-8644584D01*
X9018096Y-8644584D02*
X8970477Y-8644584D01*
X9170477Y-8644584D02*
X9170477Y-8511250D01*
X9170477Y-8549346D02*
X9180001Y-8530298D01*
X9180001Y-8530298D02*
X9189524Y-8520774D01*
X9189524Y-8520774D02*
X9208572Y-8511250D01*
X9208572Y-8511250D02*
X9227620Y-8511250D01*
X9294286Y-8644584D02*
X9294286Y-8511250D01*
X9294286Y-8444584D02*
X9284763Y-8454108D01*
X9284763Y-8454108D02*
X9294286Y-8463631D01*
X9294286Y-8463631D02*
X9303810Y-8454108D01*
X9303810Y-8454108D02*
X9294286Y-8444584D01*
X9294286Y-8444584D02*
X9294286Y-8463631D01*
X9418096Y-8644584D02*
X9399048Y-8635060D01*
X9399048Y-8635060D02*
X9389524Y-8616012D01*
X9389524Y-8616012D02*
X9389524Y-8444584D01*
X9522858Y-8644584D02*
X9503810Y-8635060D01*
X9503810Y-8635060D02*
X9494286Y-8616012D01*
X9494286Y-8616012D02*
X9494286Y-8444584D01*
X9751429Y-8644584D02*
X9751429Y-8444584D01*
X9751429Y-8444584D02*
X9818096Y-8587441D01*
X9818096Y-8587441D02*
X9884763Y-8444584D01*
X9884763Y-8444584D02*
X9884763Y-8644584D01*
X10065715Y-8644584D02*
X10065715Y-8539822D01*
X10065715Y-8539822D02*
X10056191Y-8520774D01*
X10056191Y-8520774D02*
X10037144Y-8511250D01*
X10037144Y-8511250D02*
X9999048Y-8511250D01*
X9999048Y-8511250D02*
X9980001Y-8520774D01*
X10065715Y-8635060D02*
X10046667Y-8644584D01*
X10046667Y-8644584D02*
X9999048Y-8644584D01*
X9999048Y-8644584D02*
X9980001Y-8635060D01*
X9980001Y-8635060D02*
X9970477Y-8616012D01*
X9970477Y-8616012D02*
X9970477Y-8596965D01*
X9970477Y-8596965D02*
X9980001Y-8577917D01*
X9980001Y-8577917D02*
X9999048Y-8568393D01*
X9999048Y-8568393D02*
X10046667Y-8568393D01*
X10046667Y-8568393D02*
X10065715Y-8558870D01*
X10160953Y-8511250D02*
X10160953Y-8711250D01*
X10160953Y-8520774D02*
X10180001Y-8511250D01*
X10180001Y-8511250D02*
X10218096Y-8511250D01*
X10218096Y-8511250D02*
X10237144Y-8520774D01*
X10237144Y-8520774D02*
X10246667Y-8530298D01*
X10246667Y-8530298D02*
X10256191Y-8549346D01*
X10256191Y-8549346D02*
X10256191Y-8606489D01*
X10256191Y-8606489D02*
X10246667Y-8625536D01*
X10246667Y-8625536D02*
X10237144Y-8635060D01*
X10237144Y-8635060D02*
X10218096Y-8644584D01*
X10218096Y-8644584D02*
X10180001Y-8644584D01*
X10180001Y-8644584D02*
X10160953Y-8635060D01*
X10341905Y-8625536D02*
X10351429Y-8635060D01*
X10351429Y-8635060D02*
X10341905Y-8644584D01*
X10341905Y-8644584D02*
X10332382Y-8635060D01*
X10332382Y-8635060D02*
X10341905Y-8625536D01*
X10341905Y-8625536D02*
X10341905Y-8644584D01*
X10341905Y-8520774D02*
X10351429Y-8530298D01*
X10351429Y-8530298D02*
X10341905Y-8539822D01*
X10341905Y-8539822D02*
X10332382Y-8530298D01*
X10332382Y-8530298D02*
X10341905Y-8520774D01*
X10341905Y-8520774D02*
X10341905Y-8539822D01*
M02*
