M48
; DRILL file {KiCad 9.0.5} date 2025-11-12T12:55:27-0800
; FORMAT={-:-/ absolute / inch / decimal}
; #@! TF.CreationDate,2025-11-12T12:55:27-08:00
; #@! TF.GenerationSoftware,Kicad,Pcbnew,9.0.5
; #@! TF.FileFunction,Plated,1,4,PTH
FMAT,2
INCH
; #@! TA.AperFunction,Plated,PTH,ViaDrill
T1C0.0118
; #@! TA.AperFunction,Plated,PTH,ComponentDrill
T2C0.0394
%
G90
G05
T1
X3.51Y-2.99
X3.51Y-3.15
X3.52Y-2.52
X3.52Y-2.62
X3.74Y-2.49
X3.74Y-2.85
X3.79Y-2.82
X3.89Y-2.85
X3.98Y-2.9
X3.99Y-1.98
X3.99Y-2.02
X4.0Y-1.71
X4.0Y-1.76
X4.0Y-2.37
X4.05Y-2.52
X4.0764Y-2.4737
X4.0933Y-2.8033
X4.1Y-2.52
X4.1236Y-2.4973
X4.15Y-2.45
X4.15Y-2.52
X4.1517Y-2.8117
X4.2Y-2.81
X4.24Y-1.94
X4.26Y-2.99
X4.26Y-3.15
X4.4Y-2.09
X4.53Y-2.5073
X4.555Y-2.4122
X4.56Y-2.66
X4.6Y-2.66
X4.69Y-2.66
X4.7245Y-1.7629
X4.7245Y-1.8129
X4.7245Y-1.9629
X4.7245Y-2.0629
X4.7245Y-2.1129
X4.76Y-1.71
T2
X3.57Y-2.52
X3.57Y-2.62
X3.57Y-2.72
X3.571Y-1.7408
X3.571Y-1.8408
X3.571Y-2.0004
X3.571Y-2.1004
X3.571Y-2.2004
X3.571Y-2.3004
M30
